<svg xmlns="http://www.w3.org/2000/svg" version="1.1" xmlns:xlink="http://www.w3.org/1999/xlink" xmlns:svgjs="http://svgjs.dev/svgjs" width="2000" height="580" viewBox="0 0 2000 580"><g transform="matrix(1,0,0,1,-1.2121179282579533,-0.0651774305976005)"><svg viewBox="0 0 396 115" data-background-color="#ffffff" preserveAspectRatio="xMidYMid meet" height="580" width="2000" xmlns="http://www.w3.org/2000/svg" xmlns:xlink="http://www.w3.org/1999/xlink"><g id="tight-bounds" transform="matrix(1,0,0,1,0.23999934979508453,0.012923111239189211)"><svg viewBox="0 0 395.52 114.9741537775216" height="114.9741537775216" width="395.52"><g><svg viewBox="0 0 599.5884774377325 174.29504906997343" height="114.9741537775216" width="395.52"><g transform="matrix(1,0,0,1,204.06847743773253,24.08853427812224)"><svg viewBox="0 0 395.52 126.11798051372895" height="126.11798051372895" width="395.52"><g id="textblocktransform"><svg viewBox="0 0 395.52 126.11798051372895" height="126.11798051372895" width="395.52" id="textblock"><g><svg viewBox="0 0 395.52 126.11798051372895" height="126.11798051372895" width="395.52"><g transform="matrix(1,0,0,1,0,0)"><svg width="395.52" viewBox="1.7000000476837158 -35.5 112.88999938964844 36" height="126.11798051372895" data-palette-color="#010c80"><path d="M9.8 0.5Q5.85 0.5 3.78-1.75 1.7-4 1.7-8.1L1.7-8.1 1.7-26.9Q1.7-31 3.78-33.25 5.85-35.5 9.8-35.5L9.8-35.5Q13.75-35.5 15.83-33.25 17.9-31 17.9-26.9L17.9-26.9 17.9-23.2 12.7-23.2 12.7-27.25Q12.7-30.5 9.95-30.5L9.95-30.5Q7.2-30.5 7.2-27.25L7.2-27.25 7.2-7.7Q7.2-4.5 9.95-4.5L9.95-4.5Q12.7-4.5 12.7-7.7L12.7-7.7 12.7-13.05 17.9-13.05 17.9-8.1Q17.9-4 15.83-1.75 13.75 0.5 9.8 0.5L9.8 0.5ZM21.2 0L21.2-35 26.7-35 26.7 0 21.2 0ZM30.8 0L30.8-35 37.7-35 43.05-14.05 43.15-14.05 43.15-35 48.05-35 48.05 0 42.4 0 35.8-25.55 35.7-25.55 35.7 0 30.8 0ZM52.14 0L52.14-35 67.14-35 67.14-30 57.64-30 57.64-20.75 65.19-20.75 65.19-15.75 57.64-15.75 57.64-5 67.14-5 67.14 0 52.14 0ZM70.29 0L70.29-35 78.14-35 81.64-9.95 81.74-9.95 85.24-35 93.09-35 93.09 0 87.89 0 87.89-26.5 87.79-26.5 83.79 0 79.19 0 75.19-26.5 75.09-26.5 75.09 0 70.29 0ZM95.74 0L101.44-35 108.89-35 114.59 0 109.09 0 108.09-6.95 108.09-6.85 101.84-6.85 100.84 0 95.74 0ZM102.49-11.6L107.44-11.6 104.99-28.9 104.89-28.9 102.49-11.6Z" opacity="1" transform="matrix(1,0,0,1,0,0)" fill="#010c80" class="wordmark-text-0" data-fill-palette-color="primary" id="text-0"></path></svg></g></svg></g></svg></g></svg></g><g><svg viewBox="0 0 174.29504906997346 174.29504906997343" height="174.29504906997343" width="174.29504906997346"><g><svg></svg></g><g id="icon-0"><svg viewBox="0 0 174.29504906997346 174.29504906997343" height="174.29504906997343" width="174.29504906997346"><g><path xmlns="http://www.w3.org/2000/svg" d="M52.289 174.295c-28.878 0-52.289-23.41-52.289-52.288v-69.718c0-28.878 23.41-52.289 52.289-52.289h69.718c28.878 0 52.289 23.41 52.288 52.289v69.718c0 28.878-23.41 52.289-52.288 52.288z" fill="#77d4fc" fill-rule="nonzero" stroke="none" stroke-width="1" stroke-linecap="butt" stroke-linejoin="miter" stroke-miterlimit="10" stroke-dasharray="" stroke-dashoffset="0" font-family="none" font-weight="none" font-size="none" text-anchor="none" style="mix-blend-mode: normal" data-fill-palette-color="accent"></path></g><g transform="matrix(1,0,0,1,34.85900981399471,44.26932885976255)"><svg viewBox="0 0 104.57702944198404 85.75639135044833" height="85.75639135044833" width="104.57702944198404"><g><svg xmlns="http://www.w3.org/2000/svg" xmlns:xlink="http://www.w3.org/1999/xlink" version="1.1" x="0" y="0" viewBox="1 10.12600040435791 97.25 79.74800109863281" enable-background="new 0 0 100 100" xml:space="preserve" height="85.75639135044833" width="104.57702944198404" class="icon-s-0" data-fill-palette-color="quaternary" id="s-0"><path d="M40.874 10.126C18.853 10.126 1 27.978 1 50c0 22.021 17.853 39.874 39.874 39.874 22.022 0 39.874-17.853 39.874-39.874C80.748 27.978 62.896 10.126 40.874 10.126zM55.486 24.853c2.908-2.908 7.626-2.909 10.535 0s2.908 7.627 0 10.535c-2.91 2.91-7.627 2.91-10.535 0C52.576 32.479 52.576 27.763 55.486 24.853zM5.313 50.001c-0.001-4.115 3.334-7.451 7.447-7.45 4.116-0.001 7.452 3.335 7.449 7.449 0.002 4.114-3.334 7.449-7.449 7.449C8.647 57.45 5.312 54.114 5.313 50.001zM26.262 75.147c-2.908 2.908-7.625 2.908-10.532-0.001-2.911-2.909-2.911-7.626-0.003-10.534 2.91-2.91 7.628-2.91 10.535 0C29.172 67.521 29.172 72.237 26.262 75.147zM26.262 35.388c-2.908 2.91-7.625 2.91-10.535 0-2.909-2.908-2.909-7.625 0.001-10.533 2.909-2.91 7.626-2.91 10.534-0.002C29.172 27.763 29.172 32.479 26.262 35.388zM40.875 85.562c-4.116 0.001-7.451-3.334-7.451-7.447 0-4.115 3.335-7.451 7.449-7.449 4.114-0.002 7.45 3.334 7.449 7.449C48.324 82.228 44.988 85.562 40.875 85.562zM40.874 29.336c-4.114 0-7.45-3.335-7.45-7.45s3.335-7.45 7.45-7.45 7.45 3.335 7.45 7.45S44.988 29.336 40.874 29.336zM66.021 75.146c-2.91 2.91-7.627 2.91-10.535 0.002-2.91-2.91-2.91-7.627 0-10.535 2.908-2.91 7.625-2.91 10.535 0C68.93 67.521 68.93 72.237 66.021 75.146zM68.988 57.449c-4.115 0-7.451-3.335-7.449-7.449-0.001-4.114 3.334-7.449 7.449-7.45 4.113 0 7.449 3.336 7.449 7.449C76.438 54.114 73.102 57.449 68.988 57.449z" fill="#ffffff" data-fill-palette-color="quaternary"></path><path d="M98.25 88.312c0-0.863-0.699-1.562-1.562-1.562H63.102c-0.863 0-1.562 0.699-1.562 1.562l0 0c0 0.862 0.699 1.562 1.562 1.562h33.586C97.551 89.874 98.25 89.175 98.25 88.312L98.25 88.312z" fill="#ffffff" data-fill-palette-color="quaternary"></path></svg></g></svg></g></svg></g></svg></g></svg></g><defs></defs></svg><rect width="395.52" height="114.9741537775216" fill="none" stroke="none" visibility="hidden"></rect></g></svg></g></svg>